<?xml version="1.0" encoding="UTF-8" standalone="no"?>
<!-- Created with Inkscape (http://www.inkscape.org/) -->

<svg
   version="1.1"
   id="svg1"
   width="200.44307"
   height="412.75131"
   viewBox="0 0 200.44307 412.75131"
   xmlns="http://www.w3.org/2000/svg"
   xmlns:svg="http://www.w3.org/2000/svg">
  <defs
     id="defs1">
    <clipPath
       clipPathUnits="userSpaceOnUse"
       id="clipPath6">
      <path
         d="M 0,425.197 H 425.197 V 0 H 0 Z"
         id="path6" />
    </clipPath>
    <clipPath
       clipPathUnits="userSpaceOnUse"
       id="clipPath8">
      <path
         d="M 0,425.197 H 425.197 V 0 H 0 Z"
         transform="translate(-191.00301,-244.73971)"
         id="path8" />
    </clipPath>
    <clipPath
       clipPathUnits="userSpaceOnUse"
       id="clipPath10">
      <path
         d="M 0,425.197 H 425.197 V 0 H 0 Z"
         transform="translate(-265.44831,-193.83841)"
         id="path10" />
    </clipPath>
    <clipPath
       clipPathUnits="userSpaceOnUse"
       id="clipPath12">
      <path
         d="M 0,425.197 H 425.197 V 0 H 0 Z"
         transform="translate(-255.169,-308.73871)"
         id="path12" />
    </clipPath>
    <clipPath
       clipPathUnits="userSpaceOnUse"
       id="clipPath14">
      <path
         d="M 0,425.197 H 425.197 V 0 H 0 Z"
         transform="translate(-256.24131,-79.429204)"
         id="path14" />
    </clipPath>
    <clipPath
       clipPathUnits="userSpaceOnUse"
       id="clipPath16">
      <path
         d="M 0,425.197 H 425.197 V 0 H 0 Z"
         transform="translate(-194.4376,-233.93261)"
         id="path16" />
    </clipPath>
    <clipPath
       clipPathUnits="userSpaceOnUse"
       id="clipPath18">
      <path
         d="M 0,425.197 H 425.197 V 0 H 0 Z"
         transform="translate(-282.58501,-316.10641)"
         id="path18" />
    </clipPath>
    <clipPath
       clipPathUnits="userSpaceOnUse"
       id="clipPath20">
      <path
         d="M 0,425.197 H 425.197 V 0 H 0 Z"
         transform="translate(-250.0723,-330.06341)"
         id="path20" />
    </clipPath>
    <clipPath
       clipPathUnits="userSpaceOnUse"
       id="clipPath22">
      <path
         d="M 0,425.197 H 425.197 V 0 H 0 Z"
         transform="translate(-263.0479,-285.07661)"
         id="path22" />
    </clipPath>
  </defs>
  <g
     id="layer-MC0"
     transform="translate(-183.4175,-75.897736)">
    <path
       id="path5"
       d="M 279.417,179.044 H 145.968 v 69.665 h 133.449 z"
       style="fill:#5e5d5d;fill-opacity:1;fill-rule:nonzero;stroke:none"
       transform="matrix(1.3333333,0,0,-1.3333333,0,566.92933)"
       clip-path="url(#clipPath6)" />
    <path
       id="path7"
       d="m 0,0 -36.646,119.728 c -0.709,2.321 -0.516,1.751 -1.315,3.806 l -12.647,-2.951 c 0.494,-2.158 1.088,-4.395 1.783,-6.668 L -12.755,-3.93"
       style="fill:#cccccc;fill-opacity:1;fill-rule:nonzero;stroke:none"
       transform="matrix(1.3333333,0,0,-1.3333333,254.67067,240.60973)"
       clip-path="url(#clipPath8)" />
    <path
       id="path9"
       d="m 0,0 c -1.629,0.758 -3.362,1.126 -5.082,1.126 -0.58,0 -1.158,-0.042 -1.73,-0.125 -12.23,-0.979 -20.54,-3.649 -32.701,-6.234 -11.12,-2.364 -16.524,-4.598 -25.663,-5.312 l -10.775,0.06 c -7.424,0.883 -11.091,3.654 -12.714,5.987 -0.359,0.517 -0.759,1.005 -1.194,1.459 -0.195,0.203 -0.374,0.424 -0.533,0.656 -2.297,3.367 -6.064,5.264 -9.963,5.264 -1.394,0 -2.804,-0.242 -4.17,-0.746 -5.19,-1.913 -8.412,-7.114 -7.816,-12.613 l 10.807,-97.196 c 0.498,-4.594 3.577,-8.498 7.928,-10.054 11.312,-4.043 26.059,-6.271 41.525,-6.272 h 0.003 c 15.234,0 29.649,2.248 40.591,6.329 4.274,1.594 7.282,5.463 7.774,9.997 L 6.902,-12.232 C 7.459,-7.098 4.684,-2.178 0,0"
       style="fill:#603211;fill-opacity:1;fill-rule:evenodd;stroke:none"
       transform="matrix(1.3333333,0,0,-1.3333333,353.93107,308.47813)"
       clip-path="url(#clipPath10)" />
    <path
       id="path11"
       d="m 0,0 c 0.595,0.053 1.197,0.081 1.806,0.081 11.097,0 20.093,-8.997 20.093,-20.095 0,-5.102 -1.902,-9.759 -5.036,-13.304 7.504,-6.294 10.365,-21.595 3.45,-28.809 -14.203,-1.049 -29.324,-4.333 -44.008,-7.453 2.963,15.18 4.526,31.201 2.956,49.732 0.468,-0.07 0.936,0.19 2.173,0.771 C -10.583,-15.322 -2.438,-8.211 0,0"
       style="fill:#dadad9;fill-opacity:1;fill-rule:evenodd;stroke:none"
       transform="matrix(1.3333333,0,0,-1.3333333,340.22533,155.27773)"
       clip-path="url(#clipPath12)" />
    <path
       id="path13"
       d="m 0,0 c -24.457,-9.122 -63.523,-8.323 -86.799,0 l -17.705,163.275 c 0.629,-0.921 1.332,-1.789 2.102,-2.591 5.758,-8.279 14.358,-12.037 24.757,-13.115 l 13.982,-0.076 c 24.233,1.764 54.309,11.705 81.112,13.685 0.011,0.011 0.022,0.023 0.032,0.034 z m 23.458,174.063 c -1.915,0.891 -3.952,1.323 -5.974,1.323 -0.681,0 -1.361,-0.049 -2.034,-0.147 -14.375,-1.149 -29.145,-4.289 -43.439,-7.327 -13.071,-2.778 -25.426,-5.405 -36.168,-6.243 l -12.666,0.07 c -8.726,1.039 -12.036,4.295 -13.944,7.037 -0.422,0.608 -0.891,1.181 -1.403,1.715 -0.229,0.238 -0.44,0.498 -0.626,0.772 -2.7,3.957 -7.128,6.187 -11.712,6.187 -1.637,0 -3.295,-0.285 -4.901,-0.877 -6.1,-2.25 -9.887,-8.362 -9.186,-14.825 L -100.89,-1.528 c 0.585,-5.4 4.205,-9.99 9.319,-11.818 13.296,-4.754 30.63,-7.372 48.808,-7.373 h 0.004 c 17.906,0 34.851,2.643 47.712,7.44 5.024,1.873 8.56,6.421 9.138,11.751 l 17.48,161.213 c 0.655,6.036 -2.608,11.818 -8.113,14.378"
       style="fill:#5e5d5d;fill-opacity:1;fill-rule:evenodd;stroke:none"
       transform="matrix(1.3333333,0,0,-1.3333333,341.65507,461.02373)"
       clip-path="url(#clipPath14)" />
    <path
       id="path15"
       d="m 0,0 c 24.222,1.778 54.266,11.702 81.045,13.68 6.914,7.214 4.054,22.515 -3.45,28.809 3.134,3.544 5.036,8.202 5.036,13.304 0,11.098 -8.996,20.095 -20.094,20.095 -0.608,0 -34.394,18.544 -34.25,18.679 -8.466,5.908 -19.102,7.471 -23.895,3.677 -6.129,-2.35 -10.814,-7.616 -12.356,-14.1 -1.111,0.232 -2.252,0.355 -3.417,0.355 -4.874,0 -9.219,-1.713 -12.698,-5.244 0,0 5.18,-17.023 0.5,-20.983 -7.322,-6.196 -7.47,-1.848 -7.47,-1.848 -1.403,-0.312 -1.903,-4.57 -2.503,-7.45 0.024,-0.079 0.056,-1.662 0.08,-1.742 -9.133,-1.891 -10.921,-10.45 -10.921,-20.145 0,-5.395 2.126,-10.293 5.586,-13.902 C -33.063,4.926 -24.49,1.168 -14.125,0.08"
       style="fill:#f9fafa;fill-opacity:1;fill-rule:nonzero;stroke:none"
       transform="matrix(1.3333333,0,0,-1.3333333,259.25013,255.0192)"
       clip-path="url(#clipPath16)" />
    <path
       id="path17"
       d="m 0,0 -43.555,-33.34 c -2.275,-1.742 -5.527,-1.14 -7.226,1.335 l -17.724,25.822 c -1.699,2.476 -1.228,5.927 1.048,7.668 l 43.554,33.34 c 2.275,1.742 5.528,1.141 7.227,-1.335 L 1.047,7.668 C 2.747,5.192 2.275,1.742 0,0"
       style="fill:#281508;fill-opacity:1;fill-rule:evenodd;stroke:none"
       transform="matrix(1.3333333,0,0,-1.3333333,376.78,145.45413)"
       clip-path="url(#clipPath18)" />
    <path
       id="path19"
       d="m 0,0 c 0.144,1.05 1.002,1.779 1.976,1.729 l 0.246,-0.028 10.98,-2.029 c 0.989,-0.183 1.698,-1.12 1.679,-2.158 l -0.02,-0.261 -1.597,-11.642 c -0.157,-1.137 -1.152,-1.898 -2.223,-1.699 -0.989,0.183 -1.698,1.12 -1.679,2.158 l 0.021,0.261 1.314,9.581 -9.038,1.671 C 0.587,-2.22 -0.155,-1.137 0,0 m -17.299,-23.675 1.591,11.648 c 0.155,1.137 1.15,1.899 2.222,1.701 0.989,-0.183 1.698,-1.119 1.679,-2.157 l -0.02,-0.261 -1.309,-9.589 9.036,-1.669 c 1.073,-0.198 1.816,-1.281 1.661,-2.418 -0.144,-1.05 -1.002,-1.779 -1.977,-1.729 l -0.246,0.028 -10.978,2.028 c -0.989,0.183 -1.698,1.119 -1.678,2.156 l 0.019,0.262 1.591,11.648 z M 0.389,-29.22 -6.624,1.932 c -0.254,1.13 0.394,2.239 1.446,2.478 0.978,0.222 1.961,-0.385 2.3,-1.377 L -2.812,2.798 4.2,-28.354 c 0.255,-1.129 -0.392,-2.239 -1.445,-2.478 -0.978,-0.222 -1.961,0.385 -2.3,1.377 L 0.389,-29.22 -6.624,1.932 Z"
       style="fill:#4ab526;fill-opacity:1;fill-rule:nonzero;stroke:none"
       transform="matrix(1.3333333,0,0,-1.3333333,333.42973,126.8448)"
       clip-path="url(#clipPath20)" />
    <path
       id="path21"
       d="m 0,0 c 0.967,-6.791 -6.572,-13.481 -16.841,-14.944 -10.268,-1.463 -19.377,2.856 -20.345,9.647 -0.58,4.074 -1.387,10.994 5.612,11.825 3.43,0.407 2.85,-0.984 6.958,-0.398 4.214,0.6 11.951,5.437 17.013,1.598 C -3.569,4.669 -0.57,4.004 0,0"
       style="fill:#f9fafa;fill-opacity:1;fill-rule:evenodd;stroke:none"
       transform="matrix(1.3333333,0,0,-1.3333333,350.73053,186.8272)"
       clip-path="url(#clipPath22)" />
  </g>
</svg>
